PathFileType	4	(X/Y/Z)	Walk9.trc
DataRate	CameraRate	NumFrames	NumMarkers	Units	OrigDataRate	OrigDataStartFrame	OrigNumFrames
200.000000	200.000000	9	61	mm	200.000000	733	817
Frame#	Times		RCAR		LTH3		LTB1		LBHD		RWRU		LWRU		LFA1		RTH2		LUA1		LElbow		LCAR		LTH2		RPSI		RTH3		C7		LElbowM		RFA1		RBHD		RToe		RTB2		RTB3		LTH1		RTB1		RMT5		RElbow		RASI		RLFC		RTB4		LWRR		RMT1		RTH4		T10		RBack		RLMAL		LPSI		CLAV		RMFC		RMMAL		RCAL		RUA1		LMFC		LACR1		LLFC		STRN		RWRR		RTH1		LTH4		LTB4		RElbowM		LASI		LTB3		LMT5		LFHD		RFHD		RACR1		LCAL		LMMAL		LTB2		LLMAL		LToe		LMT1
			X1	Y1	Z1	X2	Y2	Z2	X3	Y3	Z3	X4	Y4	Z4	X5	Y5	Z5	X6	Y6	Z6	X7	Y7	Z7	X8	Y8	Z8	X9	Y9	Z9	X10	Y10	Z10	X11	Y11	Z11	X12	Y12	Z12	X13	Y13	Z13	X14	Y14	Z14	X15	Y15	Z15	X16	Y16	Z16	X17	Y17	Z17	X18	Y18	Z18	X19	Y19	Z19	X20	Y20	Z20	X21	Y21	Z21	X22	Y22	Z22	X23	Y23	Z23	X24	Y24	Z24	X25	Y25	Z25	X26	Y26	Z26	X27	Y27	Z27	X28	Y28	Z28	X29	Y29	Z29	X30	Y30	Z30	X31	Y31	Z31	X32	Y32	Z32	X33	Y33	Z33	X34	Y34	Z34	X35	Y35	Z35	X36	Y36	Z36	X37	Y37	Z37	X38	Y38	Z38	X39	Y39	Z39	X40	Y40	Z40	X41	Y41	Z41	X42	Y42	Z42	X43	Y43	Z43	X44	Y44	Z44	X45	Y45	Z45	X46	Y46	Z46	X47	Y47	Z47	X48	Y48	Z48	X49	Y49	Z49	X50	Y50	Z50	X51	Y51	Z51	X52	Y52	Z52	X53	Y53	Z53	X54	Y54	Z54	X55	Y55	Z55	X56	Y56	Z56	X57	Y57	Z57	X58	Y58	Z58	X59	Y59	Z59	X60	Y60	Z60	X61	Y61	Z61

733	3.665	937.33	878.89	314.38	796.28	616.21	-128.88	868.75	384.27	-38.204	660.46	1631.4	-58.779	869.07	879.77	312.9	608.98	840.93	-241.93	595.7	974.81	-257.01	745.9	680.6	196	638.99	1277.3	-239.39	595.36	1125.7	-253.46	672.62	789.45	-241.6	833.92	727.53	-122.62	543.76	1012.1	72.999	661.68	596.21	215.44	638.65	1504	18.817	560.3	1124.4	-184.05	790.66	992.06	325.24	672.6	1642.2	82.681	458.9	29.401	126.54	501.36	301.45	193.57	461.01	224.76	122.88	745.94	792.89	-159.84	596.35	352.12	144.55	372.96	50.285	177.49	716.05	1127.6	313.61	756.96	1029.8	170.5	624.03	485.23	210.39	529.39	288.15	130.91	675.37	845.3	-191.4	419.73	42.29	103.99	677.89	688.82	223.05	535.73	1279.6	26.755	571.02	1417.9	158.55	340.64	162.22	155.03	541.83	1008.1	-4.8793	770.05	1416	13.437	654.07	488.36	81.248	389.08	159.78	80.511	283.75	173.44	99.344	723.19	1285.5	273.49	826.97	526.75	11.422	700.37	1451.4	-153.11	814.2	516.59	-117.6	816.83	1243.7	12.427	916.12	913.76	261.39	688.07	784.41	223.27	770.28	703.88	-146.29	861.34	294.43	-35.438	686.39	1105.4	239.41	754.2	1029.9	-113.34	853.07	198.44	-34.695	905.16	22.911	-111.45	840.59	1674.5	-32.601	846.92	1679.2	43.594	725.26	1454.7	174.38	748.28	27.971	-32.772	835.06	90.955	5.7658	840.26	295.43	-108.2	807.59	69.189	-75.416	1007.7	31.617	-43.339	954.77	40.159	-27.598
734	3.67	938.15	877.01	314.58	799.83	616.24	-129.47	871.33	383.85	-38.641	665.22	1631.9	-59.805	869.91	878.74	312.76	617.63	841.14	-242.96	603.59	974.91	-258.14	753.74	681.12	196.36	645.17	1277.6	-240.36	602.32	1125.8	-254.66	681.59	790.07	-242.34	838.43	727.26	-123.55	548.93	1012.3	72.221	670.47	595.82	215.97	643.3	1504.4	17.918	566.98	1124.3	-185.39	792.6	991.87	324.46	677.22	1642.9	81.645	461.56	29.954	127.35	509.65	302.95	194.17	468.52	226.61	123.64	750.8	793.27	-160.49	605.47	352.23	145.65	377.07	53.139	177.93	719.39	1128	312.25	762.18	1030.4	169.56	633.9	484.9	211.01	537.63	289.26	131.72	684.07	846.06	-192.3	423.26	43.546	104.49	685.61	688.64	223.33	540.73	1279.9	25.836	575.67	1418.4	157.64	347.25	165.76	155.52	547.16	1008.6	-5.7419	774.83	1416.7	12.745	664.47	487.93	81.725	395.79	162.42	81.079	290.82	178.37	99.673	727.33	1286	272.46	830.71	526.69	10.808	705.44	1452	-153.86	817.35	516.46	-118.11	821.85	1244.4	11.829	917.59	912.11	261.49	694.66	784.35	223.17	774.5	704.1	-146.89	863.2	294.08	-35.729	690.05	1106.2	237.8	759.49	1030.5	-113.92	854.11	198.14	-34.845	905.12	22.954	-111.47	845.34	1675	-33.531	851.59	1679.8	42.664	729.81	1455.3	173.59	748.26	27.956	-32.774	835.12	90.897	5.8498	841.92	295.16	-108.43	807.61	69.213	-75.37	1007.7	31.649	-43.381	954.73	40.244	-27.631
735	3.675	938.91	875.14	314.77	803.13	616.21	-130.03	873.78	383.41	-39.104	669.95	1632.3	-60.788	870.7	877.73	312.64	626.37	841.39	-243.97	611.53	975.04	-259.26	761.54	681.72	196.76	651.35	1278	-241.32	609.29	1125.9	-255.86	690.67	790.76	-243.09	842.78	726.91	-124.55	554.06	1012.5	71.433	679.22	595.51	216.46	647.92	1504.8	17.042	573.67	1124.2	-186.74	794.5	991.71	323.69	681.81	1643.6	80.651	464.84	30.65	128.29	518.1	304.44	194.74	476.21	228.47	124.34	755.51	793.61	-161.13	614.69	352.43	146.7	381.67	56.098	178.44	722.71	1128.4	310.91	767.28	1031	168.76	643.77	484.65	211.6	545.97	290.4	132.45	692.92	846.92	-193.23	427.36	44.988	105.09	693.27	688.53	223.6	545.69	1280.2	24.922	580.27	1418.9	156.73	354.12	169.23	155.98	552.44	1009.1	-6.6107	779.59	1417.3	12.087	674.83	487.65	82.138	402.72	165.03	81.599	298.11	183.05	99.979	731.41	1286.4	271.46	834.16	526.59	10.194	710.5	1452.5	-154.59	820.31	516.3	-118.6	826.84	1245.1	11.264	918.99	910.46	261.6	701.19	784.34	223.08	778.51	704.26	-147.47	864.97	293.71	-36.041	693.69	1107	236.25	764.59	1031	-114.33	855.1	197.83	-35.018	905.08	22.982	-111.48	850.06	1675.5	-34.417	856.22	1680.3	41.78	734.31	1456	172.83	748.24	27.941	-32.77	835.16	90.843	5.9184	843.45	294.87	-108.66	807.6	69.232	-75.33	1007.8	31.698	-43.427	954.69	40.324	-27.664
736	3.68	939.61	873.27	314.97	806.23	616.12	-130.58	876.12	382.96	-39.585	674.66	1632.8	-61.727	871.43	876.76	312.54	635.2	841.68	-244.98	619.52	975.2	-260.38	769.28	682.39	197.2	657.52	1278.4	-242.27	616.27	1126.1	-257.07	699.86	791.52	-243.83	846.98	726.48	-125.59	559.16	1012.7	70.638	687.9	595.3	216.92	652.53	1505.3	16.189	580.38	1124.2	-188.1	796.37	991.57	322.94	686.38	1644.2	79.699	468.77	31.498	129.37	526.7	305.93	195.26	484.07	230.34	124.98	760.05	793.9	-161.74	624.01	352.7	147.69	386.77	59.128	179.04	726.01	1128.8	309.6	772.26	1031.6	168.08	653.62	484.5	212.14	554.41	291.58	133.11	701.93	847.86	-194.2	432.08	46.597	105.79	700.86	688.5	223.85	550.62	1280.5	24.014	584.81	1419.4	155.82	361.24	172.59	156.42	557.67	1009.6	-7.4827	784.32	1418	11.461	685.14	487.52	82.501	409.89	167.59	82.069	305.61	187.45	100.25	735.45	1286.9	270.5	837.31	526.46	9.5901	715.54	1453	-155.29	823.09	516.11	-119.09	831.8	1245.8	10.733	920.33	908.82	261.72	707.66	784.4	223	782.33	704.37	-148.02	866.66	293.35	-36.366	697.29	1107.7	234.75	769.48	1031.3	-114.52	856.04	197.53	-35.208	905.05	22.995	-111.5	854.75	1676	-35.257	860.84	1680.9	40.943	738.77	1456.6	172.12	748.22	27.927	-32.762	835.21	90.794	5.9736	844.87	294.58	-108.9	807.57	69.246	-75.296	1007.8	31.754	-43.473	954.64	40.395	-27.697
737	3.685	940.25	871.42	315.17	809.16	615.99	-131.1	878.36	382.51	-40.07	679.33	1633.3	-62.622	872.12	875.81	312.45	644.1	842.01	-245.97	627.56	975.39	-261.5	776.95	683.15	197.66	663.68	1278.8	-243.21	623.27	1126.3	-258.27	709.14	792.34	-244.57	851.04	726	-126.64	564.23	1012.9	69.839	696.52	595.18	217.34	657.13	1505.7	15.361	587.11	1124.1	-189.47	798.22	991.44	322.21	690.93	1644.9	78.791	473.39	32.501	130.57	535.43	307.41	195.73	492.09	232.19	125.54	764.45	794.15	-162.32	633.42	353.08	148.61	392.38	62.19	179.71	729.3	1129.2	308.32	777.15	1032.2	167.53	663.43	484.47	212.63	562.93	292.79	133.7	711.1	848.89	-195.21	437.42	48.346	106.6	708.39	688.55	224.08	555.52	1280.9	23.112	589.31	1419.9	154.92	368.62	175.83	156.81	562.84	1010.2	-8.3544	789.02	1418.6	10.867	695.41	487.55	82.837	417.29	170.07	82.491	313.32	191.55	100.49	739.42	1287.3	269.59	840.2	526.3	9.0081	720.57	1453.6	-155.96	825.74	515.9	-119.55	836.73	1246.5	10.236	921.61	907.19	261.84	714.07	784.53	222.93	785.98	704.43	-148.53	868.27	292.98	-36.695	700.86	1108.5	233.3	774.08	1031.5	-114.46	856.94	197.22	-35.407	905.01	22.997	-111.52	859.41	1676.5	-36.054	865.42	1681.5	40.151	743.19	1457.2	171.46	748.2	27.915	-32.752	835.26	90.751	6.0177	846.2	294.29	-109.14	807.54	69.259	-75.265	1007.8	31.812	-43.517	954.6	40.459	-27.728
738	3.69	940.83	869.6	315.37	811.97	615.84	-131.59	880.5	382.05	-40.55	683.98	1633.9	-63.474	872.77	874.9	312.39	653.08	842.37	-246.95	635.64	975.61	-262.61	784.57	683.99	198.13	669.82	1279.2	-244.14	630.29	1126.5	-259.47	718.52	793.23	-245.31	854.98	725.5	-127.67	569.26	1013.2	69.039	705.05	595.18	217.71	661.71	1506.2	14.557	593.85	1124.1	-190.84	800.03	991.34	321.5	695.45	1645.6	77.926	478.72	33.652	131.88	544.29	308.89	196.16	500.29	234.02	126.05	768.71	794.36	-162.88	642.91	353.55	149.45	398.51	65.241	180.44	732.56	1129.6	307.07	781.96	1032.8	167.09	673.2	484.56	213.07	571.54	294.02	134.21	720.42	850.01	-196.25	443.4	50.202	107.51	715.84	688.69	224.28	560.39	1281.2	22.22	593.77	1420.3	154.02	376.25	178.94	157.18	567.95	1010.7	-9.222	793.71	1419.3	10.304	705.65	487.7	83.172	424.94	172.47	82.868	321.25	195.3	100.68	743.34	1287.7	268.74	842.84	526.14	8.4579	725.58	1454.2	-156.59	828.28	515.68	-119.99	841.63	1247.1	9.7727	922.83	905.57	261.97	720.41	784.73	222.86	789.49	704.47	-149.02	869.81	292.61	-37.021	704.4	1109.2	231.9	778.37	1031.5	-114.12	857.8	196.93	-35.609	904.98	22.989	-111.53	864.06	1677.1	-36.806	869.98	1682.1	39.406	747.57	1457.8	170.84	748.18	27.904	-32.739	835.3	90.714	6.0531	847.46	294	-109.38	807.5	69.27	-75.238	1007.8	31.868	-43.558	954.55	40.513	-27.757
739	3.695	941.36	867.8	315.57	814.69	615.68	-132.05	882.55	381.59	-41.012	688.6	1634.4	-64.282	873.38	874.03	312.35	662.12	842.77	-247.91	643.76	975.86	-263.72	792.11	684.94	198.6	675.96	1279.7	-245.05	637.32	1126.8	-260.66	727.99	794.19	-246.05	858.81	724.99	-128.67	574.27	1013.5	68.241	713.51	595.28	218.02	666.29	1506.7	13.78	600.6	1124.1	-192.22	801.83	991.26	320.82	699.95	1646.2	77.103	484.74	34.931	133.29	553.25	310.36	196.55	508.66	235.82	126.49	772.86	794.54	-163.41	652.46	354.14	150.21	405.17	68.24	181.22	735.8	1129.9	305.85	786.71	1033.4	166.75	682.91	484.77	213.46	580.22	295.26	134.67	729.89	851.2	-197.34	450.01	52.125	108.49	723.21	688.93	224.46	565.22	1281.6	21.337	598.19	1420.8	153.12	384.13	181.88	157.5	573.01	1011.4	-10.081	798.37	1419.9	9.7714	715.87	487.97	83.534	432.84	174.76	83.205	329.37	198.71	100.82	747.2	1288.1	267.93	845.28	525.98	7.9487	730.58	1454.8	-157.2	830.73	515.45	-120.39	846.5	1247.8	9.3428	924	903.98	262.1	726.69	785.02	222.79	792.9	704.48	-149.47	871.29	292.24	-37.333	707.91	1109.9	230.57	782.28	1031.4	-113.46	858.62	196.64	-35.804	904.95	22.975	-111.54	868.67	1677.7	-37.515	874.51	1682.8	38.705	751.93	1458.4	170.27	748.15	27.897	-32.726	835.34	90.684	6.0821	848.66	293.71	-109.62	807.47	69.282	-75.214	1007.9	31.918	-43.595	954.51	40.558	-27.781
740	3.7	941.84	866.04	315.78	817.36	615.53	-132.48	884.52	381.14	-41.445	693.2	1634.9	-65.048	873.95	873.19	312.32	671.23	843.21	-248.86	651.93	976.15	-264.82	799.59	685.98	199.07	682.09	1280.2	-245.94	644.36	1127.1	-261.85	737.54	795.21	-246.8	862.55	724.5	-129.62	579.24	1013.8	67.449	721.88	595.51	218.29	670.86	1507.2	13.031	607.36	1124.1	-193.6	803.61	991.21	320.16	704.43	1646.9	76.323	491.45	36.311	134.76	562.33	311.82	196.9	517.2	237.58	126.88	776.92	794.7	-163.92	662.06	354.84	150.88	412.33	71.144	182.04	739.02	1130.3	304.68	791.42	1033.9	166.5	692.56	485.12	213.8	588.97	296.5	135.08	739.49	852.47	-198.46	457.24	54.074	109.55	730.51	689.28	224.61	570.03	1282	20.466	602.57	1421.3	152.23	392.26	184.63	157.78	578.02	1012	-10.925	803.01	1420.6	9.2665	726.09	488.33	83.937	441	176.91	83.507	337.71	201.74	100.91	750.99	1288.5	267.18	847.53	525.82	7.4882	735.57	1455.4	-157.78	833.12	515.23	-120.77	851.35	1248.5	8.9454	925.13	902.41	262.23	732.92	785.39	222.72	796.23	704.48	-149.89	872.7	291.88	-37.623	711.39	1110.6	229.28	785.77	1031	-112.45	859.41	196.35	-35.986	904.92	22.956	-111.55	873.27	1678.3	-38.181	879.02	1683.4	38.046	756.25	1459.1	169.74	748.13	27.892	-32.713	835.39	90.66	6.1073	849.83	293.43	-109.84	807.43	69.294	-75.191	1007.9	31.962	-43.625	954.47	40.595	-27.801
741	3.705	942.28	864.31	315.99	820.02	615.38	-132.87	886.4	380.71	-41.84	697.78	1635.5	-65.771	874.5	872.4	312.31	680.39	843.68	-249.79	660.13	976.47	-265.91	807	687.12	199.52	688.21	1280.7	-246.81	651.42	1127.4	-263.03	747.16	796.31	-247.55	866.22	724.02	-130.5	584.18	1014.2	66.667	730.17	595.86	218.5	675.42	1507.7	12.31	614.14	1124.2	-194.97	805.36	991.17	319.53	708.9	1647.6	75.586	498.81	37.758	136.28	571.49	313.25	197.22	525.91	239.29	127.22	780.9	794.85	-164.38	671.72	355.65	151.45	419.99	73.916	182.88	742.22	1130.7	303.55	796.12	1034.5	166.32	702.13	485.6	214.09	597.8	297.72	135.47	749.2	853.8	-199.61	465.06	56.009	110.64	737.75	689.73	224.73	574.82	1282.5	19.609	606.92	1421.8	151.34	400.65	187.17	158.03	582.98	1012.6	-11.747	807.64	1421.2	8.7881	736.29	488.8	84.383	449.43	178.9	83.779	346.26	204.4	100.94	754.73	1288.9	266.49	849.64	525.67	7.0818	740.55	1456	-158.33	835.45	515.02	-121.11	856.17	1249.2	8.5791	926.2	900.87	262.36	739.1	785.85	222.65	799.51	704.48	-150.28	874.04	291.52	-37.883	714.84	1111.2	228.06	788.8	1030.5	-111.07	860.15	196.08	-36.145	904.9	22.935	-111.56	877.84	1678.9	-38.807	883.5	1684.1	37.428	760.56	1459.7	169.26	748.11	27.89	-32.701	835.44	90.645	6.1307	850.97	293.15	-110.06	807.4	69.308	-75.169	1007.9	31.998	-43.65	954.44	40.625	-27.815
